<?xml version="1.0" encoding="UTF-8" standalone="no"?>
<!-- Created with Inkscape (http://www.inkscape.org/) -->

<svg
   width="24.592384mm"
   height="20.434837mm"
   viewBox="0 0 24.592384 20.434837"
   version="1.1"
   id="svg5"
   xml:space="preserve"
   xmlns:inkscape="http://www.inkscape.org/namespaces/inkscape"
   xmlns:sodipodi="http://sodipodi.sourceforge.net/DTD/sodipodi-0.dtd"
   xmlns="http://www.w3.org/2000/svg"
   xmlns:svg="http://www.w3.org/2000/svg"><sodipodi:namedview
     id="namedview7"
     pagecolor="#ffffff"
     bordercolor="#000000"
     borderopacity="0.25"
     inkscape:showpageshadow="2"
     inkscape:pageopacity="0.0"
     inkscape:pagecheckerboard="0"
     inkscape:deskcolor="#d1d1d1"
     inkscape:document-units="mm"
     showgrid="false" /><defs
     id="defs2" /><g
     inkscape:label="Capa 1"
     inkscape:groupmode="layer"
     id="layer1"
     transform="translate(-67.088663,-90.912145)"><path
       style="fill:#000000;stroke-width:0.0788911"
       d="m 74.149432,111.06563 -0.307103,-0.28305 -0.158025,-0.69307 c -0.08692,-0.38119 -0.446226,-2.48595 -0.79847,-4.67724 -0.698675,-4.34641 -0.64641,-4.09847 -0.835296,-3.96255 -1.082194,0.77863 -2.641118,1.3018 -4.461035,1.49711 l -0.500836,0.0537 1.164748,-1.03496 c 2.422659,-2.152681 3.09712,-3.030045 4.915495,-6.394239 0.824802,-1.52598 1.482035,-2.119682 2.444839,-2.208519 l 0.443536,-0.04092 0.195269,0.162264 0.195268,0.162268 -0.0207,0.902691 c -0.01137,0.496483 -0.05528,1.2792 -0.09757,1.739372 -0.144938,1.577332 -0.03835,4.543493 0.237659,6.613433 l 0.07965,0.59733 0.160062,0.15966 0.160062,0.15965 0.300933,-0.34229 c 0.328828,-0.374 1.448112,-2.56998 2.343639,-4.598082 1.536904,-3.48062 2.633549,-5.271093 3.572206,-5.832281 l 0.340136,-0.203356 0.3905,0.03828 0.390499,0.03828 0.228867,0.223691 c 0.444853,0.434795 0.469695,0.807547 0.16313,2.447811 -0.335621,1.795736 -0.634435,5.418407 -0.632553,7.668787 0.0015,1.83089 0.06248,1.93986 0.697917,1.24766 1.709265,-1.86195 3.965236,-6.261378 6.491328,-12.6589 0.527024,-1.334727 0.537036,-1.308184 0.192108,0.509151 -1.647893,8.682249 -4.955189,15.803839 -8.069939,17.376989 l -0.570359,0.28806 -0.484092,0.005 -0.484089,0.005 -0.263483,-0.1917 c -0.78561,-0.57161 -1.274569,-3.0622 -1.143329,-5.82372 l 0.05488,-1.15473 -0.170829,0.15772 c -0.284403,0.26258 -0.653855,0.97393 -2.271005,4.37269 -1.691572,3.55516 -1.656416,3.49554 -2.220498,3.76583 l -0.390536,0.18713 -0.487946,7e-4 -0.487946,7e-4 -0.307103,-0.28305 z"
       id="path1581"
       inkscape:export-filename="websencia.svg"
       inkscape:export-xdpi="16.530001"
       inkscape:export-ydpi="16.530001" /></g></svg>
